{
  "asset": {
    "generator": "Khronos glTF Blender I/O v3.6.27",
    "version": "2.0"
  },
  "scene": 0,
  "scenes": [
    {
      "name": "Scene",
      "nodes": [0]
    }
  ],
  "nodes": [
    {
      "mesh": 0,
      "name": "Model",
      "scale": [0.10000000149011612, 0.10000000149011612, 0.10000000149011612],
      "translation": [-7.5, 0, 7.5]
    }
  ],
  "materials": [
    {
      "alphaMode": "BLEND",
      "doubleSided": true,
      "name": "Material",
      "pbrMetallicRoughness": {
        "baseColorFactor": [
          0.04700461030006409, 0.017038904130458832, 0.5428572297096252, 0.5
        ],
        "metallicFactor": 0,
        "roughnessFactor": 0.3685446083545685
      }
    }
  ],
  "meshes": [
    {
      "name": "Model",
      "primitives": [
        {
          "attributes": {
            "POSITION": 0,
            "NORMAL": 1
          },
          "indices": 2,
          "material": 0
        }
      ]
    }
  ],
  "accessors": [
    {
      "bufferView": 0,
      "componentType": 5126,
      "count": 1935,
      "max": [150, 32, 0],
      "min": [0, 0, -150],
      "type": "VEC3"
    },
    {
      "bufferView": 1,
      "componentType": 5126,
      "count": 1935,
      "type": "VEC3"
    },
    {
      "bufferView": 2,
      "componentType": 5123,
      "count": 3462,
      "type": "SCALAR"
    }
  ],
  "bufferViews": [
    {
      "buffer": 0,
      "byteLength": 23220,
      "byteOffset": 0,
      "target": 34962
    },
    {
      "buffer": 0,
      "byteLength": 23220,
      "byteOffset": 23220,
      "target": 34962
    },
    {
      "buffer": 0,
      "byteLength": 6924,
      "byteOffset": 46440,
      "target": 34963
    }
  ],
  "buffers": [
    {
      "byteLength": 53364,
      "uri": "data:application/octet-stream;base64,"
    }
  ]
}
