{
	"asset":{
		"generator":"Khronos glTF Blender I/O v3.6.27",
		"version":"2.0"
	},
	"scene":0,
	"scenes":[
		{
			"name":"Scene",
			"nodes":[
				0
			]
		}
	],
	"nodes":[
		{
			"mesh":0,
			"name":"Model Kopieren"
		}
	],
	"meshes":[
		{
			"name":"Model Kopieren",
			"primitives":[
				{
					"attributes":{
						"COLOR_0":0,
						"POSITION":1,
						"NORMAL":2,
						"TEXCOORD_0":3
					},
					"indices":4
				}
			]
		}
	],
	"accessors":[
		{
			"bufferView":0,
			"componentType":5126,
			"count":1309,
			"type":"VEC4"
		},
		{
			"bufferView":1,
			"componentType":5126,
			"count":1309,
			"max":[
				0.20000000298023224,
				0.11699999868869781,
				6.234160010249813e-18
			],
			"min":[
				0,
				0,
				-0.1860000044107437
			],
			"type":"VEC3"
		},
		{
			"bufferView":2,
			"componentType":5126,
			"count":1309,
			"type":"VEC3"
		},
		{
			"bufferView":3,
			"componentType":5126,
			"count":1309,
			"type":"VEC2"
		},
		{
			"bufferView":4,
			"componentType":5123,
			"count":2982,
			"type":"SCALAR"
		}
	],
	"bufferViews":[
		{
			"buffer":0,
			"byteLength":20944,
			"byteOffset":0,
			"target":34962
		},
		{
			"buffer":0,
			"byteLength":15708,
			"byteOffset":20944,
			"target":34962
		},
		{
			"buffer":0,
			"byteLength":15708,
			"byteOffset":36652,
			"target":34962
		},
		{
			"buffer":0,
			"byteLength":10472,
			"byteOffset":52360,
			"target":34962
		},
		{
			"buffer":0,
			"byteLength":5964,
			"byteOffset":62832,
			"target":34963
		}
	],
	"buffers":[
		{
			"byteLength":68796,
			"uri":"data:application/octet-stream;base64,"
		}
	]
}
